<?xml version="1.0" encoding="UTF-8"?>
<svg xmlns="http://www.w3.org/2000/svg" xmlns:xlink="http://www.w3.org/1999/xlink" width="60px" height="60px" viewBox="0 0 60 60" version="1.1">
<g id="surface1">
<path style=" stroke:none;fill-rule:nonzero;fill:rgb(0%,0%,0%);fill-opacity:1;" d="M 59.0625 30 C 59.0625 13.945312 46.054688 0.9375 30 0.9375 C 13.945312 0.9375 0.9375 13.945312 0.9375 30 C 0.9375 44.503906 11.566406 56.527344 25.460938 58.710938 L 25.460938 38.402344 L 18.078125 38.402344 L 18.078125 30 L 25.460938 30 L 25.460938 23.597656 C 25.460938 16.3125 29.796875 12.289062 36.4375 12.289062 C 39.617188 12.289062 42.941406 12.859375 42.941406 12.859375 L 42.941406 20.007812 L 39.277344 20.007812 C 35.667969 20.007812 34.539062 22.246094 34.539062 24.546875 L 34.539062 30 L 42.601562 30 L 41.3125 38.402344 L 34.539062 38.402344 L 34.539062 58.710938 C 48.433594 56.527344 59.0625 44.503906 59.0625 30 Z M 59.0625 30 "/>
</g>
</svg>
