<?xml version="1.0" encoding="UTF-8"?>
<svg xmlns="http://www.w3.org/2000/svg" xmlns:xlink="http://www.w3.org/1999/xlink" width="60px" height="62px" viewBox="0 0 60 61" version="1.1">
<g id="surface1">
<path style=" stroke:none;fill-rule:nonzero;fill:rgb(0%,0%,0%);fill-opacity:1;" d="M 20.070312 47.347656 C 20.070312 47.585938 19.789062 47.773438 19.441406 47.773438 C 19.039062 47.8125 18.761719 47.621094 18.761719 47.347656 C 18.761719 47.109375 19.039062 46.917969 19.390625 46.917969 C 19.753906 46.882812 20.070312 47.074219 20.070312 47.347656 Z M 16.304688 46.808594 C 16.222656 47.046875 16.464844 47.324219 16.828125 47.394531 C 17.140625 47.511719 17.503906 47.394531 17.578125 47.15625 C 17.648438 46.917969 17.417969 46.644531 17.054688 46.535156 C 16.742188 46.453125 16.390625 46.570312 16.304688 46.808594 Z M 21.652344 46.609375 C 21.300781 46.691406 21.058594 46.917969 21.097656 47.191406 C 21.132812 47.429688 21.449219 47.585938 21.808594 47.5 C 22.160156 47.417969 22.402344 47.191406 22.367188 46.953125 C 22.332031 46.726562 22.003906 46.570312 21.652344 46.609375 Z M 29.613281 0.953125 C 12.835938 0.953125 0 13.5 0 30.023438 C 0 43.234375 8.445312 54.542969 20.503906 58.523438 C 22.050781 58.796875 22.597656 57.855469 22.597656 57.082031 C 22.597656 56.339844 22.558594 52.265625 22.558594 49.765625 C 22.558594 49.765625 14.09375 51.550781 12.316406 46.214844 C 12.316406 46.214844 10.933594 42.746094 8.953125 41.855469 C 8.953125 41.855469 6.179688 39.984375 9.144531 40.019531 C 9.144531 40.019531 12.15625 40.257812 13.816406 43.09375 C 16.464844 47.691406 20.902344 46.371094 22.632812 45.582031 C 22.910156 43.675781 23.699219 42.355469 24.570312 41.566406 C 17.804688 40.828125 10.984375 39.863281 10.984375 28.402344 C 10.984375 25.125 11.902344 23.484375 13.839844 21.386719 C 13.523438 20.609375 12.496094 17.417969 14.152344 13.296875 C 16.679688 12.523438 22.5 16.511719 22.5 16.511719 C 24.917969 15.84375 27.519531 15.5 30.097656 15.5 C 32.671875 15.5 35.273438 15.84375 37.695312 16.511719 C 37.695312 16.511719 43.511719 12.507812 46.039062 13.296875 C 47.699219 17.429688 46.667969 20.609375 46.355469 21.386719 C 48.289062 23.496094 49.476562 25.136719 49.476562 28.402344 C 49.476562 39.898438 42.351562 40.816406 35.589844 41.566406 C 36.703125 42.507812 37.644531 44.296875 37.644531 47.097656 C 37.644531 51.109375 37.609375 56.078125 37.609375 57.054688 C 37.609375 57.832031 38.164062 58.773438 39.703125 58.5 C 51.796875 54.542969 60 43.234375 60 30.023438 C 60 13.5 46.390625 0.953125 29.613281 0.953125 Z M 11.757812 42.042969 C 11.601562 42.164062 11.636719 42.4375 11.84375 42.664062 C 12.035156 42.855469 12.316406 42.9375 12.472656 42.785156 C 12.628906 42.664062 12.59375 42.390625 12.386719 42.164062 C 12.195312 41.972656 11.914062 41.890625 11.757812 42.042969 Z M 10.453125 41.078125 C 10.367188 41.234375 10.488281 41.425781 10.730469 41.542969 C 10.921875 41.664062 11.164062 41.628906 11.25 41.460938 C 11.335938 41.304688 11.214844 41.117188 10.972656 40.996094 C 10.730469 40.925781 10.535156 40.960938 10.453125 41.078125 Z M 14.371094 45.320312 C 14.175781 45.476562 14.25 45.832031 14.527344 46.058594 C 14.804688 46.332031 15.15625 46.371094 15.316406 46.179688 C 15.472656 46.023438 15.398438 45.667969 15.15625 45.441406 C 14.890625 45.167969 14.527344 45.128906 14.371094 45.320312 Z M 12.992188 43.570312 C 12.796875 43.6875 12.796875 44 12.992188 44.273438 C 13.183594 44.546875 13.511719 44.664062 13.667969 44.546875 C 13.863281 44.390625 13.863281 44.082031 13.667969 43.808594 C 13.5 43.535156 13.183594 43.414062 12.992188 43.570312 Z M 12.992188 43.570312 "/>
</g>
</svg>
