<?xml version="1.0" encoding="UTF-8"?>
<svg xmlns="http://www.w3.org/2000/svg" xmlns:xlink="http://www.w3.org/1999/xlink" width="60px" height="60px" viewBox="0 0 60 60" version="1.1">
<g id="surface1">
<path style=" stroke:none;fill-rule:nonzero;fill:rgb(0%,0%,0%);fill-opacity:1;" d="M 58.371094 0.65625 C 59.554688 1.476562 60.175781 2.894531 59.953125 4.3125 L 52.453125 53.0625 C 52.277344 54.199219 51.585938 55.195312 50.578125 55.757812 C 49.570312 56.320312 48.363281 56.390625 47.296875 55.945312 L 33.28125 50.121094 L 25.253906 58.804688 C 24.210938 59.941406 22.570312 60.316406 21.128906 59.753906 C 19.6875 59.191406 18.75 57.796875 18.75 56.25 L 18.75 46.453125 C 18.75 45.984375 18.925781 45.539062 19.242188 45.199219 L 38.882812 23.765625 C 39.5625 23.027344 39.539062 21.890625 38.835938 21.1875 C 38.132812 20.484375 36.996094 20.4375 36.257812 21.105469 L 12.421875 42.28125 L 2.074219 37.101562 C 0.832031 36.480469 0.0351562 35.238281 0 33.855469 C -0.0351562 32.472656 0.691406 31.183594 1.886719 30.492188 L 54.386719 0.492188 C 55.640625 -0.222656 57.1875 -0.152344 58.371094 0.65625 Z M 58.371094 0.65625 "/>
</g>
</svg>
