<?xml version="1.0" encoding="UTF-8"?>
<svg xmlns="http://www.w3.org/2000/svg" xmlns:xlink="http://www.w3.org/1999/xlink" width="61px" height="70px" viewBox="0 0 61 69" version="1.1">
<g id="surface1">
<path style=" stroke:none;fill-rule:nonzero;fill:rgb(0%,0%,0%);fill-opacity:1;" d="M 52.285156 4.3125 C 57.09375 4.3125 61 8.179688 61 12.9375 L 61 56.0625 C 61 60.820312 57.09375 64.6875 52.285156 64.6875 L 8.714844 64.6875 C 3.90625 64.6875 0 60.820312 0 56.0625 L 0 12.9375 C 0 8.179688 3.90625 4.3125 8.714844 4.3125 Z M 39.9375 17.34375 C 38.613281 16.992188 37.226562 17.65625 36.707031 18.90625 L 33.984375 25.375 C 33.523438 26.480469 33.847656 27.75 34.777344 28.503906 L 38.125 31.226562 C 35.863281 35.96875 31.984375 39.808594 27.191406 42.046875 L 24.441406 38.71875 C 23.679688 37.800781 22.398438 37.476562 21.28125 37.9375 L 14.746094 40.632812 C 13.480469 41.15625 12.8125 42.519531 13.167969 43.824219 L 14.800781 49.753906 C 15.128906 50.941406 16.203125 51.75 17.429688 51.75 C 34.273438 51.75 47.929688 38.234375 47.929688 21.5625 C 47.929688 20.351562 47.113281 19.285156 45.925781 18.960938 Z M 39.9375 17.34375 "/>
</g>
</svg>
